<?xml version="1.0" standalone="no"?>
<!DOCTYPE svg PUBLIC "-//W3C//DTD SVG 20010904//EN" "http://www.w3.org/TR/2001/REC-SVG-20010904/DTD/svg10.dtd">
<!-- Created using Krita: https://krita.org -->
<svg xmlns="http://www.w3.org/2000/svg" 
    xmlns:xlink="http://www.w3.org/1999/xlink"
    xmlns:krita="http://krita.org/namespaces/svg/krita"
    xmlns:sodipodi="http://sodipodi.sourceforge.net/DTD/sodipodi-0.dtd"
    width="1474.56pt"
    height="1474.56pt"
    viewBox="0 0 1474.56 1474.56">
<defs/>
<path id="shape0" transform="translate(206.601477126932, 275.899747778738)" fill="none" stroke="#ff0000" stroke-width="57.6" stroke-linecap="square" stroke-linejoin="bevel" d="M1014.52 609.7C1016.64 529.829 998.602 419.397 937.896 325.089C835.972 166.748 673.733 9.62706 700.948 109.919C717.823 172.104 715.402 163.158 710.594 239.932C705.786 316.706 640.283 412.452 639.256 351.588C638.882 329.407 609.513 204.971 530.679 123.422C438.738 28.3152 296.708 -21.9437 318.999 9.22025C414.277 142.423 378.583 388.85 331.777 461.38C313.643 489.48 255.369 451.752 208.862 367.52C180.439 316.043 177.994 242.478 184.072 191.869C195.506 96.6702 21.5161 428.505 6.51852 529.06C-14.7005 671.328 17.9645 801.941 74.355 891.52C149.583 1013.66 325.765 1067.55 530.679 1069.06C888.658 1066.11 1008.86 822.454 1014.52 609.7Z" sodipodi:nodetypes="ccszcccscssccs"/><path id="shape1" transform="translate(498.536690477829, 866.360845291683)" fill="none" stroke="#ff0000" stroke-width="57.6" stroke-linecap="square" stroke-linejoin="miter" stroke-miterlimit="2" d="M11.2233 435.039C-5.61365 407.004 -19.0478 286.838 92.3888 204.893C181.339 139.484 165.708 25.4401 173.368 7.99328C202.938 -59.3573 536.714 317.141 367.623 453.759" sodipodi:nodetypes="cssc"/>
</svg>
