<?xml version="1.0" standalone="no"?>
<!DOCTYPE svg PUBLIC "-//W3C//DTD SVG 20010904//EN" "http://www.w3.org/TR/2001/REC-SVG-20010904/DTD/svg10.dtd">
<!-- Created using Krita: https://krita.org -->
<svg xmlns="http://www.w3.org/2000/svg" 
    xmlns:xlink="http://www.w3.org/1999/xlink"
    xmlns:krita="http://krita.org/namespaces/svg/krita"
    xmlns:sodipodi="http://sodipodi.sourceforge.net/DTD/sodipodi-0.dtd"
    width="1474.56pt"
    height="1474.56pt"
    viewBox="0 0 1474.56 1474.56">
<defs/>
<path id="shape0" transform="translate(155.428293974172, 292.974213071599)" fill="none" stroke="#bef1ff" stroke-width="57.6" stroke-linecap="square" stroke-linejoin="bevel" d="M1070.01 396.786C1100.3 331.683 1149.2 -5.40274 821.612 0.0657906C756 -2.81421 928.92 181.613 794.75 265.533C530.951 430.533 1.56903 270.348 0.0917075 270.786C-6.40478 272.71 333.387 566.229 658.172 585.426C986.441 604.828 1039.73 461.889 1070.01 396.786Z" sodipodi:nodetypes="ccsssz"/><path id="shape1" transform="translate(136.785501530576, 684.401472455122)" fill="none" stroke="#bef1ff" stroke-width="57.6" stroke-linecap="square" stroke-linejoin="bevel" d="M1085.77 478.399C1165.23 440.216 1373.31 203.742 1182.97 9.67853C1162.23 -3.85819 1170.4 196.804 913.709 272.383C518.242 388.822 46.1703 18.6384 10.0945 1.75854C-63.2282 -32.5491 275.019 445.816 631.454 503.599C981.905 560.411 1055 493.186 1085.77 478.399Z" sodipodi:nodetypes="ccssss"/>
</svg>
