<?xml version="1.0" encoding="utf-8"?>
<!-- Generator: Adobe Illustrator 26.3.1, SVG Export Plug-In . SVG Version: 6.00 Build 0)  -->
<svg version="1.1"
	 id="Layer_1" xmlns:krita="http://krita.org/namespaces/svg/krita" xmlns:sodipodi="http://sodipodi.sourceforge.net/DTD/sodipodi-0.dtd"
	 xmlns="http://www.w3.org/2000/svg" xmlns:xlink="http://www.w3.org/1999/xlink" x="0px" y="0px" viewBox="0 0 1474.6 1474.6"
	 style="enable-background:new 0 0 1474.6 1474.6;" xml:space="preserve">
<style type="text/css">
	.st0{fill:none;stroke:#00133F;stroke-width:150;stroke-linecap:square;stroke-linejoin:bevel;}
	.st1{fill:none;stroke:#070012;stroke-width:57.6;stroke-linecap:square;stroke-linejoin:bevel;}
</style>
<g id="shape0">
	<circle class="st0" cx="974.2" cy="568.1" r="311"/>
	<circle class="st1" cx="974.2" cy="568.1" r="311"/>
</g>
<g id="shape1" sodipodi:nodetypes="cszzccc">
	<path class="st0" d="M641.5,283c33.5-60.4-252.9,37.6-364.9,231.7c-132.2,229-57.9,502.2,71.2,634.4
		c129.1,132.3,424.7,228.8,688.8,140.2c264.2-88.7,350.1-515.1,259.4-442.6c-106.9,138.5-489.2,190.3-635.2,4.6
		C530.5,693.8,533.5,453.7,641.5,283z"/>
	<path class="st1" d="M641.5,283c33.5-60.4-252.9,37.6-364.9,231.7c-132.2,229-57.9,502.2,71.2,634.4
		c129.1,132.3,424.7,228.8,688.8,140.2c264.2-88.7,350.1-515.1,259.4-442.6c-106.9,138.5-489.2,190.3-635.2,4.6
		C530.5,693.8,533.5,453.7,641.5,283z"/>
</g>
</svg>
