<?xml version="1.0" encoding="utf-8"?>
<!-- Generator: Adobe Illustrator 26.3.1, SVG Export Plug-In . SVG Version: 6.00 Build 0)  -->
<svg version="1.1"
	 id="Layer_1" xmlns:krita="http://krita.org/namespaces/svg/krita" xmlns:sodipodi="http://sodipodi.sourceforge.net/DTD/sodipodi-0.dtd"
	 xmlns="http://www.w3.org/2000/svg" xmlns:xlink="http://www.w3.org/1999/xlink" x="0px" y="0px" viewBox="0 0 1474.6 1474.6"
	 style="enable-background:new 0 0 1474.6 1474.6;" xml:space="preserve">
<style type="text/css">
	.st0{fill:none;stroke:#00133F;stroke-width:150;stroke-linecap:round;stroke-linejoin:round;}
	.st1{fill:none;stroke:#FC6B24;stroke-width:57.6;stroke-linecap:round;stroke-linejoin:round;}
	.st2{fill:none;stroke:#00133F;stroke-width:150;stroke-linecap:square;stroke-miterlimit:2;}
	.st3{fill:none;stroke:#FC6B24;stroke-width:57.6;stroke-linecap:square;stroke-miterlimit:2;}
</style>
<g id="shape0_00000078005522116084493400000005698405290540021902_" sodipodi:nodetypes="ccszcccscssccs">
	<path class="st0" d="M390.7,467.8c11.4-95.2-162.6,236.6-177.6,337.2c-21.2,142.3,11.4,272.9,67.8,362.5
		c75.2,122.1,251.4,176,456.3,177.5c358-3,478.2-246.6,483.8-459.4c2.1-79.9-15.9-190.3-76.6-284.6
		c-101.9-158.3-264.2-315.5-236.9-215.2c14.2,113.6-12,178.6-34.5,212c-9.1,13.4-29.7,9.9-33.7-5.8c-12.5-48.5-43.7-132.3-102-192.6
		c-91.9-95.1-234-145.4-211.7-114.2c95.3,133.2,59.6,379.6,12.8,452.2C391,715.5,390.7,467.8,390.7,467.8z"/>
	<path class="st1" d="M390.7,467.8c11.4-95.2-162.6,236.6-177.6,337.2c-21.2,142.3,11.4,272.9,67.8,362.5
		c75.2,122.1,251.4,176,456.3,177.5c358-3,478.2-246.6,483.8-459.4c2.1-79.9-15.9-190.3-76.6-284.6
		c-101.9-158.3-264.2-315.5-236.9-215.2c14.2,113.6-12,178.6-34.5,212c-9.1,13.4-29.7,9.9-33.7-5.8c-12.5-48.5-43.7-132.3-102-192.6
		c-91.9-95.1-234-145.4-211.7-114.2c95.3,133.2,59.6,379.6,12.8,452.2C391,715.5,390.7,467.8,390.7,467.8z"/>
</g>
<g id="shape1_00000174589291735957828850000000614804769720710791_" sodipodi:nodetypes="cssc">
	<path class="st2" d="M578.3,1207c-25.2-10.4-41.6-34.8-41.8-62c-0.2-40.7,15.5-98.4,75.5-142.4c72.7-53.4,59.9-146.6,66.1-160.8
		c22.9-52.1,268.7,221.1,177.2,344.9c-8.7,11.8-21.1,20.4-35,24.9C709.1,1247.8,622.6,1225.3,578.3,1207z"/>
	<path class="st3" d="M578.3,1207c-25.2-10.4-41.6-34.8-41.8-62c-0.2-40.7,15.5-98.4,75.5-142.4c72.7-53.4,59.9-146.6,66.1-160.8
		c22.9-52.1,268.7,221.1,177.2,344.9c-8.7,11.8-21.1,20.4-35,24.9C709.1,1247.8,622.6,1225.3,578.3,1207z"/>
</g>
</svg>
