<?xml version="1.0" encoding="utf-8"?>
<!-- Generator: Adobe Illustrator 26.3.1, SVG Export Plug-In . SVG Version: 6.00 Build 0)  -->
<svg version="1.1"
	 id="Layer_1" xmlns:krita="http://krita.org/namespaces/svg/krita" xmlns:sodipodi="http://sodipodi.sourceforge.net/DTD/sodipodi-0.dtd"
	 xmlns="http://www.w3.org/2000/svg" xmlns:xlink="http://www.w3.org/1999/xlink" x="0px" y="0px" viewBox="0 0 1474.6 1474.6"
	 style="enable-background:new 0 0 1474.6 1474.6;" xml:space="preserve">
<style type="text/css">
	.st0{fill:none;stroke:#00133F;stroke-width:150;stroke-linecap:round;stroke-linejoin:round;}
	.st1{fill:none;stroke:#B7FFFE;stroke-width:57.6;stroke-linecap:round;stroke-linejoin:round;}
</style>
<g id="shape0" sodipodi:nodetypes="ccccccc">
	<path class="st0" d="M792.5,250.4c380.5,210.9,1.6,0.1,382.9,210.7c34.6,19.1,56.2,55.5,56.4,95.1c0.4,77.2,0.9,224,1.4,440.4
		c0.1,41.5-23.3,79.5-60.5,98c-376,187.7,6.1-3.4-385,190.9c-31.7,15.7-69,15.2-100.1-1.5c-367.1-196.4-10.5-6.2-362.9-195.6
		c-35.1-18.9-57.1-55.3-57.5-95.1c-4-394.4-2.8-353.6-3-426.6c-0.1-38.4,19.9-74,52.7-93.8C682,252,318,472.5,683.2,252.4
		C716.7,232.2,758.4,231.5,792.5,250.4z"/>
	<path class="st1" d="M792.5,250.4c380.5,210.9,1.6,0.1,382.9,210.7c34.6,19.1,56.2,55.5,56.4,95.1c0.4,77.2,0.9,224,1.4,440.4
		c0.1,41.5-23.3,79.5-60.5,98c-376,187.7,6.1-3.4-385,190.9c-31.7,15.7-69,15.2-100.1-1.5c-367.1-196.4-10.5-6.2-362.9-195.6
		c-35.1-18.9-57.1-55.3-57.5-95.1c-4-394.4-2.8-353.6-3-426.6c-0.1-38.4,19.9-74,52.7-93.8C682,252,318,472.5,683.2,252.4
		C716.7,232.2,758.4,231.5,792.5,250.4z"/>
</g>
<g>
	<line class="st0" x1="737.3" y1="1083.4" x2="737.3" y2="842.4"/>
	<line class="st1" x1="737.3" y1="1083.4" x2="737.3" y2="842.4"/>
</g>
<g>
	<line class="st0" x1="459.6" y1="598" x2="637.3" y2="678.7"/>
	<line class="st1" x1="459.6" y1="598" x2="637.3" y2="678.7"/>
</g>
<g>
	<line class="st0" x1="1047.2" y1="604.1" x2="864.5" y2="672.6"/>
	<line class="st1" x1="1047.2" y1="604.1" x2="864.5" y2="672.6"/>
</g>
</svg>
