<?xml version="1.0" standalone="no"?>
<!DOCTYPE svg PUBLIC "-//W3C//DTD SVG 20010904//EN" "http://www.w3.org/TR/2001/REC-SVG-20010904/DTD/svg10.dtd">
<!-- Created using Krita: https://krita.org -->
<svg xmlns="http://www.w3.org/2000/svg" 
    xmlns:xlink="http://www.w3.org/1999/xlink"
    xmlns:krita="http://krita.org/namespaces/svg/krita"
    xmlns:sodipodi="http://sodipodi.sourceforge.net/DTD/sodipodi-0.dtd"
    width="1474.56pt"
    height="1474.56pt"
    viewBox="0 0 1474.56 1474.56">
<defs/>
<path id="shape0" transform="translate(263.816650566272, 219.780010819995)" fill="none" stroke="#b7fffe" stroke-width="57.6" stroke-linecap="square" stroke-linejoin="bevel" d="M473.463 0C964.503 272.16 474.903 -1.7053e-13 967.383 272.16C967.962 275.717 968.682 466.517 969.543 844.56C475.782 1091.09 968.797 844.626 473.463 1090.8C4.77026 840.174 467.554 1086.98 4.02335 838.08C-1.63777 286.554 1.34112 460.787 0 285.101C471.501 -0.0125151 0.522252 285.114 473.463 0Z" sodipodi:nodetypes="ccccccc"/><path id="shape1" transform="translate(737.267412663234, 813.111611205584)" fill="none" stroke="#b7fffe" stroke-width="57.6" stroke-linecap="square" stroke-linejoin="miter" stroke-miterlimit="2" d="M0.0125873 0.488356C-0.0473052 -15.865 0.132592 384.018 0.0125873 370.698" sodipodi:nodetypes="cc"/><path id="shape2" transform="translate(821.339942885186, 548.595123654844)" fill="none" stroke="#b7fffe" stroke-width="57.6" stroke-linecap="square" stroke-linejoin="miter" stroke-miterlimit="2" d="M2.69825 148.797C-33.4843 167.041 306.302 -3.25801 299.702 0.0475219" sodipodi:nodetypes="cc"/><path id="shape3" transform="translate(386.468140745892, 570.96046554066)" fill="none" stroke="#b7fffe" stroke-width="57.6" stroke-linecap="square" stroke-linejoin="miter" stroke-miterlimit="2" d="M0.418223 0.210281C-12.7358 -6.22249 288.898 137.135 271.04 128.516" sodipodi:nodetypes="cc"/>
</svg>
