<?xml version="1.0" encoding="utf-8"?>
<!-- Generator: Adobe Illustrator 26.3.1, SVG Export Plug-In . SVG Version: 6.00 Build 0)  -->
<svg version="1.1"
	 id="Layer_1" xmlns:krita="http://krita.org/namespaces/svg/krita" xmlns:sodipodi="http://sodipodi.sourceforge.net/DTD/sodipodi-0.dtd"
	 xmlns="http://www.w3.org/2000/svg" xmlns:xlink="http://www.w3.org/1999/xlink" x="0px" y="0px" viewBox="0 0 1474.6 1474.6"
	 style="enable-background:new 0 0 1474.6 1474.6;" xml:space="preserve">
<style type="text/css">
	.st0{fill:none;stroke:#00133F;stroke-width:150;stroke-linecap:square;stroke-linejoin:bevel;}
	.st1{fill:none;stroke:#F7EF17;stroke-width:57.6;stroke-linecap:square;stroke-linejoin:bevel;}
</style>
<g id="shape0_00000178194478087158641620000015483344382596412861_" sodipodi:nodetypes="cccccccccccccc">
	<path class="st0" d="M1177.4,846.2L953.1,831c-0.4,0-0.7-0.3-0.6-0.7l32.1-185c0.1-0.4-0.2-0.7-0.6-0.7l-323.2-6.5
		c-0.4,0-0.7-0.4-0.6-0.8l50.8-171c0.1-0.2,0-0.4-0.1-0.6L469.1,208.1c-0.2-0.3-0.7-0.2-0.9,0l-243.1,312c-0.3,0.3-0.1,0.8,0.3,0.9
		l269.4,80.3c0.3,0.1,0.4,0.3,0.4,0.6l-11.5,174.7c0,0.3,0.2,0.6,0.5,0.6l313.4,34.4c0.3,0,0.6,0.4,0.5,0.7l-32.1,137
		c-0.1,0.3,0.1,0.6,0.5,0.7l300.8,75.6c0.1,0,0.3,0.1,0.4,0.2l230,285c0.4,0.5,1.2,0.1,1-0.5l-120.9-463.7
		C1177.9,846.4,1177.6,846.2,1177.4,846.2z"/>
	<path class="st1" d="M1177.4,846.2L953.1,831c-0.4,0-0.7-0.3-0.6-0.7l32.1-185c0.1-0.4-0.2-0.7-0.6-0.7l-323.2-6.5
		c-0.4,0-0.7-0.4-0.6-0.8l50.8-171c0.1-0.2,0-0.4-0.1-0.6L469.1,208.1c-0.2-0.3-0.7-0.2-0.9,0l-243.1,312c-0.3,0.3-0.1,0.8,0.3,0.9
		l269.4,80.3c0.3,0.1,0.4,0.3,0.4,0.6l-11.5,174.7c0,0.3,0.2,0.6,0.5,0.6l313.4,34.4c0.3,0,0.6,0.4,0.5,0.7l-32.1,137
		c-0.1,0.3,0.1,0.6,0.5,0.7l300.8,75.6c0.1,0,0.3,0.1,0.4,0.2l230,285c0.4,0.5,1.2,0.1,1-0.5l-120.9-463.7
		C1177.9,846.4,1177.6,846.2,1177.4,846.2z"/>
</g>
</svg>
