<?xml version="1.0" standalone="no"?>
<!DOCTYPE svg PUBLIC "-//W3C//DTD SVG 20010904//EN" "http://www.w3.org/TR/2001/REC-SVG-20010904/DTD/svg10.dtd">
<!-- Created using Krita: https://krita.org -->
<svg xmlns="http://www.w3.org/2000/svg" 
    xmlns:xlink="http://www.w3.org/1999/xlink"
    xmlns:krita="http://krita.org/namespaces/svg/krita"
    xmlns:sodipodi="http://sodipodi.sourceforge.net/DTD/sodipodi-0.dtd"
    width="1474.56pt"
    height="1474.56pt"
    viewBox="0 0 1474.56 1474.56">
<defs/>
<path id="shape0" transform="matrix(0.712275352532946 -0.70190015114265 0.70190015114265 0.712275352532946 -14.8411679829719 517.187928287393)" fill="none" stroke="#1dae00" stroke-width="57.6" stroke-linecap="square" stroke-linejoin="bevel" d="M702.298 697.947C655.128 373.298 472.015 107.539 363.097 0C252.716 109.361 21.9919 370.563 0.983217 697.947C-16.2542 966.562 196.657 1151.14 364.77 1207.84C541.353 1169.78 755.529 1064.31 702.298 697.947Z" sodipodi:nodetypes="ccscs"/><path id="shape1" transform="translate(439.208781706239, 474.912602767851)" fill="none" stroke="#1dae00" stroke-width="57.6" stroke-linecap="square" stroke-linejoin="miter" stroke-miterlimit="2" d="M64.0712 38.8974C102.861 64.9974 -18.7288 -17.7126 2.51119 3.52736C236.348 125.556 507.816 443.107 644.801 656.278C731.408 685.183 785.208 932.291 773.991 888.047" sodipodi:nodetypes="cccc"/><path id="shape2" transform="translate(520.922757336203, 518.841342360219)" fill="none" stroke="#1dae00" stroke-width="57.6" stroke-linecap="square" stroke-linejoin="miter" stroke-miterlimit="2" d="M5.57724 182.259C-25.9721 199.059 84.6955 139.872 128.073 114.014C151.74 75.2871 226.11 -23.5192 205.017 5.13865" sodipodi:nodetypes="ccc"/><path id="shape3" transform="translate(618.898137909186, 616.768420226254)" fill="none" stroke="#1dae00" stroke-width="57.6" stroke-linecap="square" stroke-linejoin="miter" stroke-miterlimit="2" d="M7.86186 241.633C-37.4025 262.628 124.825 189.513 187.67 147.841C227.845 98.4983 293.878 -14.7685 283.892 1.60319" sodipodi:nodetypes="ccc"/><path id="shape4" transform="translate(713.88962460274, 765.527906267504)" fill="none" stroke="#1dae00" stroke-width="57.6" stroke-linecap="square" stroke-linejoin="miter" stroke-miterlimit="2" d="M7.55038 250.392C-42.6899 266.763 171.808 197.151 237.467 168.715C265.978 114.273 346.029 -16.0284 335.33 1.63206" sodipodi:nodetypes="ccc"/>
</svg>
