<?xml version="1.0" encoding="utf-8"?>
<!-- Generator: Adobe Illustrator 26.3.1, SVG Export Plug-In . SVG Version: 6.00 Build 0)  -->
<svg version="1.1"
	 id="Layer_1" xmlns:krita="http://krita.org/namespaces/svg/krita" xmlns:sodipodi="http://sodipodi.sourceforge.net/DTD/sodipodi-0.dtd"
	 xmlns="http://www.w3.org/2000/svg" xmlns:xlink="http://www.w3.org/1999/xlink" x="0px" y="0px" viewBox="0 0 1474.6 1474.6"
	 style="enable-background:new 0 0 1474.6 1474.6;" xml:space="preserve">
<style type="text/css">
	.st0{fill:none;stroke:#5000CD;stroke-width:57.6;stroke-linecap:square;stroke-miterlimit:2;}
	.st1{fill:none;stroke:#00133F;stroke-width:150;stroke-linecap:square;stroke-miterlimit:2;}
	.st2{fill:none;stroke:#905EA9;stroke-width:57.6;stroke-linecap:square;stroke-miterlimit:2;}
	.st3{fill:none;stroke:#00133F;stroke-width:150;stroke-linecap:square;stroke-linejoin:bevel;}
	.st4{fill:none;stroke:#905EA9;stroke-width:57.6;stroke-linecap:square;stroke-linejoin:bevel;}
</style>
<path id="shape0_00000166677248047236250210000014457292439883654784_" sodipodi:nodetypes="cc" class="st0" d="M1321.9,239.8"/>
<path id="shape0_00000160172915776422781130000005350617722033535929_" sodipodi:nodetypes="cc" class="st0" d="M146.9,239.8"/>
<g id="shape1_00000042725802427267603650000011094094839971392931_" sodipodi:nodetypes="cszzzsc">
	<path class="st1" d="M143.3,239.8c-165.2-2.2,45.8,2.9,98.8,114.7c60.8,128.3,39,862.4,201.4,862.4c194.5,0,75.5-791.3,326.9-791.3
		c211,0,144.3,264.2,261.9,264.2c101.4,0,118.5-201.6,188.6-330.7c61.3-112.9,221.8-119.3,149.2-119.3H143.3z"/>
	<path class="st2" d="M143.3,239.8c-165.2-2.2,45.8,2.9,98.8,114.7c60.8,128.3,39,862.4,201.4,862.4c194.5,0,75.5-791.3,326.9-791.3
		c211,0,144.3,264.2,261.9,264.2c101.4,0,118.5-201.6,188.6-330.7c61.3-112.9,221.8-119.3,149.2-119.3H143.3z"/>
</g>
<g id="shape2">
	<ellipse class="st3" cx="1028.2" cy="994.4" rx="82.1" ry="117.7"/>
	<ellipse class="st4" cx="1028.2" cy="994.4" rx="82.1" ry="117.7"/>
</g>
</svg>
