<?xml version="1.0" encoding="utf-8"?>
<!-- Generator: Adobe Illustrator 26.3.1, SVG Export Plug-In . SVG Version: 6.00 Build 0)  -->
<svg version="1.1"
	 id="Layer_1" xmlns:krita="http://krita.org/namespaces/svg/krita" xmlns:sodipodi="http://sodipodi.sourceforge.net/DTD/sodipodi-0.dtd"
	 xmlns="http://www.w3.org/2000/svg" xmlns:xlink="http://www.w3.org/1999/xlink" x="0px" y="0px" viewBox="0 0 1474.6 1474.6"
	 style="enable-background:new 0 0 1474.6 1474.6;" xml:space="preserve">
<style type="text/css">
	.st0{fill:none;stroke:#00133F;stroke-width:150;stroke-linecap:square;stroke-linejoin:bevel;}
	.st1{fill:none;stroke:#2EA5FF;stroke-width:57.6;stroke-linecap:square;stroke-linejoin:bevel;}
	.st2{fill:none;stroke:#00133F;stroke-width:150;stroke-miterlimit:10;}
</style>
<g id="shape0" sodipodi:nodetypes="ccccc">
	
		<ellipse transform="matrix(0.3854 -0.9227 0.9227 0.3854 -408.6793 997.1079)" class="st0" cx="544.2" cy="805.3" rx="140.3" ry="61.8"/>
	
		<ellipse transform="matrix(0.3854 -0.9227 0.9227 0.3854 -408.6793 997.1079)" class="st1" cx="544.2" cy="805.3" rx="140.3" ry="61.8"/>
</g>
<g id="shape1" sodipodi:nodetypes="czsszs">
	<path class="st2" d="M1176,962c0-56.7-8.8-180-185.5-372.2C813.7,397.7,952.4,104.6,937,115.3c-119.5,82.9-637.9,414.9-637.9,827.3
		c11,205.7,125.2,412.5,428.4,416.9C1042.8,1359.5,1176,1185,1176,962z"/>
	<path class="st1" d="M1176,962c0-56.7-8.8-180-185.5-372.2C813.7,397.7,952.4,104.6,937,115.3c-119.5,82.9-637.9,414.9-637.9,827.3
		c11,205.7,125.2,412.5,428.4,416.9C1042.8,1359.5,1176,1185,1176,962z"/>
</g>
</svg>
