<?xml version="1.0" standalone="no"?>
<!DOCTYPE svg PUBLIC "-//W3C//DTD SVG 20010904//EN" "http://www.w3.org/TR/2001/REC-SVG-20010904/DTD/svg10.dtd">
<!-- Created using Krita: https://krita.org -->
<svg xmlns="http://www.w3.org/2000/svg" 
    xmlns:xlink="http://www.w3.org/1999/xlink"
    xmlns:krita="http://krita.org/namespaces/svg/krita"
    xmlns:sodipodi="http://sodipodi.sourceforge.net/DTD/sodipodi-0.dtd"
    width="1474.56pt"
    height="1474.56pt"
    viewBox="0 0 1474.56 1474.56">
<defs/>
<path id="shape0" transform="matrix(0.924368853590799 0.381499963972792 -0.384646967147479 0.923070041333006 478.297135468904 652.397256998433)" fill="none" stroke="#2ea5ff" stroke-width="57.6" stroke-linecap="square" stroke-linejoin="bevel" d="M123.604 140.336C123.604 62.8304 95.9342 4.74567e-15 61.802 0C27.6697 -4.74567e-15 1.47855e-14 62.8304 0 140.336C0 217.841 27.6697 280.671 61.802 280.671C95.9342 280.671 123.604 217.841 123.604 140.336Z" sodipodi:nodetypes="ccccc"/><path id="shape1" transform="translate(298.517958392658, 115.024400506346)" fill="none" stroke="#2ea5ff" stroke-width="57.6" stroke-linecap="square" stroke-linejoin="bevel" d="M877.506 847.005C876.981 796.203 868.726 666.972 691.969 474.843C515.212 282.715 653.904 -10.4266 638.466 0.28549C518.922 83.23 -19.503 451.993 0.545582 827.565C11.5271 1033.28 125.722 1240.06 428.946 1244.45C732.169 1248.83 879.423 1032.81 877.506 847.005Z" sodipodi:nodetypes="czsszs"/>
</svg>
