<?xml version="1.0" encoding="utf-8"?>
<!-- Generator: Adobe Illustrator 26.3.1, SVG Export Plug-In . SVG Version: 6.00 Build 0)  -->
<svg version="1.1"
	 id="Layer_1" xmlns:krita="http://krita.org/namespaces/svg/krita" xmlns:sodipodi="http://sodipodi.sourceforge.net/DTD/sodipodi-0.dtd"
	 xmlns="http://www.w3.org/2000/svg" xmlns:xlink="http://www.w3.org/1999/xlink" x="0px" y="0px" viewBox="0 0 1474.6 1474.6"
	 style="enable-background:new 0 0 1474.6 1474.6;" xml:space="preserve">
<style type="text/css">
	.st0{fill:none;stroke:#00133F;stroke-width:150;stroke-linecap:square;stroke-linejoin:bevel;}
	.st1{fill:none;stroke:#C7DCD0;stroke-width:57.6;stroke-linecap:square;stroke-linejoin:bevel;}
</style>
<g id="shape0" sodipodi:nodetypes="ccsssz">
	<path class="st0" d="M1225.1,556.9c0-72.4-15.2-295.9-268.1-295.9c-65.6-2.9,83.9,189.6-50.2,273.5c-263.8,165-769.8-3.2-771.3-2.8
		c-6.5,1.9,365.6,321.1,668.2,321.1C1174.3,852.9,1225.1,664.5,1225.1,556.9z"/>
	<path class="st1" d="M1225.1,556.9c0-72.4-15.2-295.9-268.1-295.9c-65.6-2.9,83.9,189.6-50.2,273.5c-263.8,165-769.8-3.2-771.3-2.8
		c-6.5,1.9,365.6,321.1,668.2,321.1C1174.3,852.9,1225.1,664.5,1225.1,556.9z"/>
</g>
<g id="shape1" sodipodi:nodetypes="ccssss">
	<path class="st0" d="M876.8,1204.2c393.3,0,538.9-222.8,443-509.1c-15.5-36.6-12.6,187.1-269.3,262.7
		C655,1074.2,183,704,146.9,687.2C73.6,652.9,384.1,1204.2,876.8,1204.2z"/>
	<path class="st1" d="M876.8,1204.2c393.3,0,538.9-222.8,443-509.1c-15.5-36.6-12.6,187.1-269.3,262.7
		C655,1074.2,183,704,146.9,687.2C73.6,652.9,384.1,1204.2,876.8,1204.2z"/>
</g>
</svg>
